<svg width="24" height="25" viewBox="0 0 24 25" fill="none" xmlns="http://www.w3.org/2000/svg">
<path d="M20.58 11.396L13.58 4.10431C13.1995 3.70983 12.6459 3.55676 12.1277 3.70276C11.6095 3.84877 11.2054 4.27166 11.0677 4.81214C10.9299 5.35262 11.0795 5.92858 11.46 6.32306L15.89 10.9272H4.47998C3.65155 10.9272 2.97998 11.6268 2.97998 12.4897C2.97998 13.3527 3.65155 14.0522 4.47998 14.0522H15.89L11.46 18.6564C11.0315 19.1032 10.9035 19.7748 11.1354 20.3583C11.3673 20.9418 11.9137 21.3225 12.52 21.3231C12.9225 21.3168 13.3053 21.1401 13.58 20.8335L20.58 13.5418C21.1649 12.9318 21.1649 11.9435 20.58 11.3335V11.396Z" fill="black"/>
</svg>
