<svg width="22" height="22" viewBox="0 0 22 22" fill="none" xmlns="http://www.w3.org/2000/svg">
<path fill-rule="evenodd" clip-rule="evenodd" d="M5 1H17C19.2091 1 21 2.79086 21 5V17C21 19.2091 19.2091 21 17 21H5C2.79086 21 1 19.2091 1 17V5C1 2.79086 2.79086 1 5 1ZM18.7678 18.7678C19.2366 18.2989 19.5 17.663 19.5 17V5C19.5 4.33696 19.2366 3.70107 18.7678 3.23223C18.2989 2.76339 17.663 2.5 17 2.5H5C3.61929 2.5 2.5 3.61929 2.5 5V17C2.5 17.663 2.76339 18.2989 3.23223 18.7678C3.70107 19.2366 4.33696 19.5 5 19.5H17C17.663 19.5 18.2989 19.2366 18.7678 18.7678Z" fill="#F47820"/>
<path d="M14.69 7.73C14.3972 7.43755 13.9228 7.43755 13.63 7.73L11.21 10.15L8.79 7.73C8.49449 7.45464 8.03399 7.46277 7.74838 7.74838C7.46277 8.03399 7.45464 8.49449 7.73 8.79L10.15 11.21L7.73 13.63C7.43755 13.9228 7.43755 14.3972 7.73 14.69C8.02282 14.9825 8.49718 14.9825 8.79 14.69L11.21 12.27L13.63 14.69C13.7705 14.8307 13.9612 14.9098 14.16 14.91C14.358 14.9057 14.5472 14.8272 14.69 14.69C14.9825 14.3972 14.9825 13.9228 14.69 13.63L12.27 11.21L14.69 8.79C14.9825 8.49718 14.9825 8.02282 14.69 7.73Z" fill="#F47820"/>
<path fill-rule="evenodd" clip-rule="evenodd" d="M5 1H17C19.2091 1 21 2.79086 21 5V17C21 19.2091 19.2091 21 17 21H5C2.79086 21 1 19.2091 1 17V5C1 2.79086 2.79086 1 5 1ZM18.7678 18.7678C19.2366 18.2989 19.5 17.663 19.5 17V5C19.5 4.33696 19.2366 3.70107 18.7678 3.23223C18.2989 2.76339 17.663 2.5 17 2.5H5C3.61929 2.5 2.5 3.61929 2.5 5V17C2.5 17.663 2.76339 18.2989 3.23223 18.7678C3.70107 19.2366 4.33696 19.5 5 19.5H17C17.663 19.5 18.2989 19.2366 18.7678 18.7678Z" stroke="#F47820"/>
<path d="M14.69 7.73C14.3972 7.43755 13.9228 7.43755 13.63 7.73L11.21 10.15L8.79 7.73C8.49449 7.45464 8.03399 7.46277 7.74838 7.74838C7.46277 8.03399 7.45464 8.49449 7.73 8.79L10.15 11.21L7.73 13.63C7.43755 13.9228 7.43755 14.3972 7.73 14.69C8.02282 14.9825 8.49718 14.9825 8.79 14.69L11.21 12.27L13.63 14.69C13.7705 14.8307 13.9612 14.9098 14.16 14.91C14.358 14.9057 14.5472 14.8272 14.69 14.69C14.9825 14.3972 14.9825 13.9228 14.69 13.63L12.27 11.21L14.69 8.79C14.9825 8.49718 14.9825 8.02282 14.69 7.73Z" stroke="#F47820"/>
</svg>
