<svg width="14" height="18" viewBox="0 0 14 18" fill="none" xmlns="http://www.w3.org/2000/svg">
<path fill-rule="evenodd" clip-rule="evenodd" d="M13.3167 12.925L13.5167 13.875C13.7062 14.6963 13.5191 15.5594 13.0064 16.2285C12.4937 16.8975 11.709 17.3027 10.8667 17.3333H3.13334C2.29099 17.3027 1.50631 16.8975 0.99363 16.2285C0.480945 15.5594 0.293813 14.6963 0.483341 13.875L0.683341 12.925C0.91337 11.639 2.01886 10.6939 3.32501 10.6667H10.675C11.9812 10.6939 13.0866 11.639 13.3167 12.925ZM10.8667 16.075C11.2898 16.0701 11.6881 15.8741 11.95 15.5417V15.55C12.2714 15.1468 12.3966 14.6215 12.2917 14.1167L12.0917 13.1667C11.9807 12.4627 11.3872 11.9355 10.675 11.9083H3.32501C2.61281 11.9355 2.01931 12.4627 1.90834 13.1667L1.70834 14.1167C1.60597 14.6188 1.73106 15.1405 2.05001 15.5417C2.31195 15.8741 2.71019 16.0701 3.13334 16.075H10.8667Z" fill="white"/>
<path fill-rule="evenodd" clip-rule="evenodd" d="M7.41666 9H6.58333C4.74238 9 3.24999 7.50762 3.24999 5.66667V3.46667C3.24777 2.72338 3.54206 2.0099 4.06764 1.48432C4.59323 0.958732 5.30671 0.664447 6.04999 0.666669H7.95C8.69328 0.664447 9.40676 0.958732 9.93235 1.48432C10.4579 2.0099 10.7522 2.72338 10.75 3.46667V5.66667C10.75 7.50762 9.25761 9 7.41666 9ZM6.04999 1.91667C5.19395 1.91667 4.5 2.61063 4.5 3.46667V5.66667C4.5 6.81726 5.43273 7.75 6.58333 7.75H7.41666C8.56726 7.75 9.49999 6.81726 9.49999 5.66667V3.46667C9.49999 3.05558 9.33669 2.66133 9.04601 2.37065C8.75533 2.07997 8.36108 1.91667 7.95 1.91667H6.04999Z" fill="white"/>
</svg>
